<!--?xml version="1.0" encoding="UTF-8"?-->
<svg width="560.29" height="278.04" version="1.1" viewBox="0 0 560.29413 278.04474" xmlns="http://www.w3.org/2000/svg" style="">
<g transform="translate(-58.808 -38.2)">
<g transform="translate(13.808)" fill="none" stroke="#0f0">
<path d="m45 303h175l117.62-252h62.383v150" stroke-width="25.6" class="IwxeYSwe_0"></path>
<path d="m330 223h220l36.547 80.717-9.6538 0.28277 6.107-3" stroke-width="24.5" class="IwxeYSwe_1"></path>
</g>
<path transform="matrix(-.99555 -.094268 .092028 -.99576 0 0)" fill="none" stroke="#000" stroke-linecap="square" stroke-width="7.6059" d="M-594.094,-69.348A70.974,71.825 0,1,1 -452.146,-69.348A70.974,71.825 0,1,1 -594.094,-69.348" class="IwxeYSwe_2"></path>
<path transform="rotate(185.34)" fill="none" stroke="#00f" stroke-miterlimit="5.2" stroke-width="60.61" d="M-553.5360000000001,-69.94A30.336,30.336 0,1,1 -492.86400000000003,-69.94A30.336,30.336 0,1,1 -553.5360000000001,-69.94" class="IwxeYSwe_3"></path>
<path d="m60.039 226s13.141-4.5872 20-5c13.369-0.80452 26.474 4.9034 39.867 5 15.136 0.10923 29.997-4.9974 45.133-5 15.183-3e-3 30.092 5.1155 45.275 5 13.346-0.10154 39.725-5 39.725-5l-7.0673 15.151s-21.648 4.7608-32.657 4.9723c-15.185 0.29169-30.087-5.1232-45.275-5.1235-14.974-2.9e-4 -29.664 5.1381-44.638 5.0496-13.559-0.0801-26.828-5.8662-40.362-5.0496-6.8594 0.41384-20 5-20 5z" fill="#00f" stroke="#000" stroke-width="1px" class="IwxeYSwe_4"></path>
<path d="m60.039 247.37s13.141-4.5872 20-5c13.369-0.80452 26.474 4.9034 39.867 5 15.136 0.10923 29.997-4.9974 45.133-5 15.183-3e-3 30.098 5.4301 45.275 5 10.044-0.2846 29.725-5 29.725-5l-7.0673 15.151s-14.935 4.5729-22.657 4.9723c-15.168 0.78449-30.087-5.1232-45.275-5.1235-14.974-2.9e-4 -29.664 5.1381-44.638 5.0496-13.559-0.0801-26.828-5.8662-40.362-5.0496-6.8594 0.41384-20 5-20 5z" fill="#00f" stroke="#000" stroke-width="1px" class="IwxeYSwe_5"></path>
<path d="m60.039 268.75s13.141-4.5872 20-5c13.369-0.80452 26.474 4.9034 39.867 5 15.136 0.10923 29.997-4.9974 45.133-5 15.183-3e-3 30.128 6.0488 45.275 5 6.7668-0.46855 19.725-5 19.725-5l-7.0673 15.151s-8.163 4.381-12.657 4.9723c-15.058 1.9812-30.087-5.1232-45.275-5.1235-14.974-2.9e-4 -29.664 5.1381-44.638 5.0496-13.559-0.0801-26.828-5.8662-40.362-5.0496-6.8594 0.41384-20 5-20 5z" fill="#00f" stroke="#000" stroke-width="1px" class="IwxeYSwe_6"></path>
</g>
<style data-made-with="vivus-instant">.IwxeYSwe_0{stroke-dasharray:666 668;stroke-dashoffset:667;animation:IwxeYSwe_draw 2000ms linear 0ms forwards;}.IwxeYSwe_1{stroke-dasharray:326 328;stroke-dashoffset:327;animation:IwxeYSwe_draw 2000ms linear 166ms forwards;}.IwxeYSwe_2{stroke-dasharray:449 451;stroke-dashoffset:450;animation:IwxeYSwe_draw 2000ms linear 333ms forwards;}.IwxeYSwe_3{stroke-dasharray:191 193;stroke-dashoffset:192;animation:IwxeYSwe_draw 2000ms linear 500ms forwards;}.IwxeYSwe_4{stroke-dasharray:409 411;stroke-dashoffset:410;animation:IwxeYSwe_draw 2000ms linear 666ms forwards;}.IwxeYSwe_5{stroke-dasharray:390 392;stroke-dashoffset:391;animation:IwxeYSwe_draw 2000ms linear 833ms forwards;}.IwxeYSwe_6{stroke-dasharray:370 372;stroke-dashoffset:371;animation:IwxeYSwe_draw 2000ms linear 1000ms forwards;}@keyframes IwxeYSwe_draw{100%{stroke-dashoffset:0;}}@keyframes IwxeYSwe_fade{0%{stroke-opacity:1;}94.44444444444444%{stroke-opacity:1;}100%{stroke-opacity:0;}}</style></svg>
